<svg width="32" height="25" viewBox="0 0 32 25" fill="none" xmlns="http://www.w3.org/2000/svg">
<path d="M15.9657 9.42513C13.3619 9.42513 11.1692 11.4973 11.1692 14.1043C11.1692 16.7112 13.3619 18.7834 15.9657 18.7834C18.6381 18.7834 20.8308 16.7112 20.8308 14.1043C20.8308 11.4973 18.6381 9.42513 15.9657 9.42513ZM28.7794 4.67914H24.9422C24.394 4.67914 23.8458 4.27807 23.7088 3.81016L22.6809 0.935829C22.5439 0.40107 21.9957 0 21.4475 0H10.5525C10.0043 0 9.4561 0.40107 9.31906 0.935829L8.29122 3.81016C8.15418 4.27807 7.606 4.67914 7.05782 4.67914H3.22056C1.43897 4.67914 0 6.08289 0 7.82086V21.8583C0 23.5963 1.43897 25 3.22056 25H28.848C30.561 25 32 23.5963 32 21.8583V7.8877C32 6.08289 30.561 4.67914 28.7794 4.67914ZM15.9657 21.9251C11.5803 21.9251 8.01713 18.4492 8.01713 14.1043C8.01713 9.8262 11.5803 6.35027 15.9657 6.35027C20.4197 6.35027 23.9829 9.8262 23.9829 14.1043C23.9829 18.3824 20.4197 21.9251 15.9657 21.9251ZM27.6831 10.0267C27.0664 10.0267 26.5867 9.55882 26.5867 8.89037C26.5867 8.28877 27.0664 7.82086 27.6831 7.82086C28.2998 7.82086 28.7794 8.28877 28.7794 8.89037C28.7794 9.55882 28.2998 10.0267 27.6831 10.0267Z" fill="white" fill-opacity="0.7"/>
</svg>
