<?xml version="1.0" encoding="utf-8"?>
<!-- Generator: Adobe Illustrator 24.0.2, SVG Export Plug-In . SVG Version: 6.00 Build 0)  -->
<svg version="1.1" id="Camada_1" xmlns="http://www.w3.org/2000/svg" xmlns:xlink="http://www.w3.org/1999/xlink" x="0px" y="0px"
	 viewBox="0 0 34 34" style="enable-background:new 0 0 34 34;" xml:space="preserve">
<style type="text/css">
	.st0{fill:#6A49EF;}
	.st1{fill:#FF2626;}
	.st2{fill:#48FEA7;}
</style>
<path class="st0" d="M33.4,22.3L25.3,2.2c-0.4-1-1.4-1.7-2.5-1.8c-1.1-0.1-2.1,0.5-2.7,1.5l-7.8,14.3c-0.4,0.8-0.5,1.7-0.1,2.6
	c0.3,0.8,1,1.5,1.9,1.7l16.3,5c0.2,0.1,0.4,0.1,0.7,0.1c0.7,0,1.3-0.3,1.8-0.8C33.6,24.2,33.8,23.2,33.4,22.3z M21.7,2.7
	c0.2-0.4,0.6-0.6,1.1-0.6c0.4,0,0.8,0.3,1,0.7L31.8,23c0.1,0.2,0.1,0.5-0.1,0.7c-0.2,0.2-0.5,0.3-0.8,0.2l-16.3-5
	c-0.4-0.1-0.7-0.4-0.9-0.8c-0.2-0.4-0.1-0.8,0.1-1.1l0,0L21.7,2.7z"/>
<path class="st1" d="M23.8,11c-1.9-2.5-4.5-4.4-7.3-5.2l-8-2.5C7.9,3,7.2,3.1,6.7,3.5c-0.6,0.4-0.9,1-0.9,1.7v17.7
	c0,1.3,0.9,2.5,2.2,2.9l8.1,2.5c1.1,0.3,2.1,0.5,3.2,0.5c1.7,0,3.3-0.5,4.5-1.4c2-1.4,3.1-3.7,3.1-6.5v-1.8
	C26.8,16.4,25.8,13.5,23.8,11z M25.1,19.2v1.7c0,2.2-0.8,4.1-2.4,5.2c-1.6,1.1-3.8,1.4-6.2,0.6l-8.1-2.5c-0.6-0.2-1-0.7-1-1.3V5.2
	c0-0.1,0.1-0.2,0.2-0.3c0.1,0,0.2-0.1,0.2-0.1c0,0,0.1,0,0.1,0l8,2.5c2.4,0.8,4.7,2.4,6.4,4.6C24.2,14.3,25.1,16.8,25.1,19.2z"/>
<path class="st2" d="M9.6,10.9l-6.5-2C2.5,8.7,1.8,8.8,1.3,9.2l0,0c-0.6,0.4-0.9,1-0.9,1.7v17.7c0,1.3,0.9,2.5,2.2,2.9l6.5,2
	c0.2,0.1,0.4,0.1,0.6,0.1c0.4,0,0.9-0.1,1.2-0.4c0.6-0.4,0.9-1,0.9-1.7V13.8C11.8,12.5,10.9,11.3,9.6,10.9z M10.1,13.8v17.7
	c0,0.1,0,0.2-0.1,0.3c-0.1,0.1-0.3,0.1-0.4,0.1l-6.5-2c-0.6-0.2-1-0.7-1-1.3V10.9c0-0.1,0.1-0.2,0.2-0.3c0.1,0,0.2-0.1,0.2-0.1
	c0.1,0,0.1,0,0.1,0l6.5,2C9.7,12.8,10.1,13.3,10.1,13.8z"/>
</svg>
