<svg width="1440" height="414" viewBox="0 0 1440 414" fill="none" xmlns="http://www.w3.org/2000/svg">
<mask id="mask0" mask-type="alpha" maskUnits="userSpaceOnUse" x="0" y="14" width="1440" height="400">
<rect y="14" width="1440" height="400" fill="#4ACAC1"/>
</mask>
<g mask="url(#mask0)">
<path d="M152 -22C160 46 251 106.227 441 76C631 45.7727 805 162 953 112C1058.31 76.4223 1308.82 34.3882 1347 150C1419 368 1103 308 1081 526" stroke="white" stroke-width="12" stroke-dasharray="20 20"/>
</g>
<path d="M1272 302.847C1262.55 302.847 1254.85 310.517 1254.85 319.924C1254.85 329.33 1262.55 337 1272 337C1281.45 337 1289.15 329.33 1289.15 319.924C1289.15 310.517 1281.45 302.847 1272 302.847Z" fill="white"/>
<path d="M1297 272.891C1297 292.862 1281.59 312.833 1274.91 320.502C1273.31 322.239 1270.55 322.239 1268.95 320.502C1262.41 312.833 1247 292.862 1247 272.891C1247 259.143 1258.19 248 1272 248C1285.81 248 1297 259.143 1297 272.891Z" fill="#E04545"/>
<path d="M1272 287.073C1279.95 287.073 1286.39 280.659 1286.39 272.746C1286.39 264.834 1279.95 258.419 1272 258.419C1264.05 258.419 1257.61 264.834 1257.61 272.746C1257.61 280.659 1264.05 287.073 1272 287.073Z" fill="#C43C3C"/>
<path d="M581 56.8472C571.552 56.8472 563.849 64.5171 563.849 73.9236C563.849 83.3301 571.552 91 581 91C590.447 91 598.151 83.3301 598.151 73.9236C598.151 64.5171 590.447 56.8472 581 56.8472Z" fill="white"/>
<path d="M606 26.8911C606 46.8618 590.593 66.8325 583.907 74.5024C582.308 76.239 579.547 76.239 577.948 74.5024C571.407 66.8325 556 46.8618 556 26.8911C556 13.1431 567.192 2 581 2C594.808 2 606 13.1431 606 26.8911Z" fill="#E04545"/>
<path d="M581 41.0732C588.947 41.0732 595.389 34.6588 595.389 26.7463C595.389 18.8338 588.947 12.4195 581 12.4195C573.053 12.4195 566.61 18.8338 566.61 26.7463C566.61 34.6588 573.053 41.0732 581 41.0732Z" fill="#C43C3C"/>
<path d="M935 101.847C925.552 101.847 917.849 109.517 917.849 118.924C917.849 128.33 925.552 136 935 136C944.447 136 952.151 128.33 952.151 118.924C952.151 109.517 944.447 101.847 935 101.847Z" fill="white"/>
<path d="M960 71.8911C960 91.8618 944.593 111.833 937.907 119.502C936.308 121.239 933.547 121.239 931.948 119.502C925.407 111.833 910 91.8618 910 71.8911C910 58.1431 921.192 47 935 47C948.808 47 960 58.1431 960 71.8911Z" fill="#E04545"/>
<path d="M935 86.0732C942.947 86.0732 949.389 79.6588 949.389 71.7463C949.389 63.8338 942.947 57.4195 935 57.4195C927.053 57.4195 920.61 63.8338 920.61 71.7463C920.61 79.6588 927.053 86.0732 935 86.0732Z" fill="#C43C3C"/>
<path d="M257 54.8472C247.552 54.8472 239.849 62.5171 239.849 71.9236C239.849 81.3301 247.552 89 257 89C266.447 89 274.151 81.3301 274.151 71.9236C274.151 62.5171 266.447 54.8472 257 54.8472Z" fill="white"/>
<path d="M282 24.8911C282 44.8618 266.593 64.8325 259.907 72.5024C258.308 74.239 255.547 74.239 253.948 72.5024C247.407 64.8325 232 44.8618 232 24.8911C232 11.1431 243.192 0 257 0C270.808 0 282 11.1431 282 24.8911Z" fill="#E04545"/>
<path d="M257 39.0732C264.947 39.0732 271.389 32.6588 271.389 24.7463C271.389 16.8338 264.947 10.4195 257 10.4195C249.053 10.4195 242.61 16.8338 242.61 24.7463C242.61 32.6588 249.053 39.0732 257 39.0732Z" fill="#C43C3C"/>
<path d="M1355 151.847C1345.55 151.847 1337.85 159.517 1337.85 168.924C1337.85 178.33 1345.55 186 1355 186C1364.45 186 1372.15 178.33 1372.15 168.924C1372.15 159.517 1364.45 151.847 1355 151.847Z" fill="white"/>
<path d="M1380 121.891C1380 141.862 1364.59 161.833 1357.91 169.502C1356.31 171.239 1353.55 171.239 1351.95 169.502C1345.41 161.833 1330 141.862 1330 121.891C1330 108.143 1341.19 97 1355 97C1368.81 97 1380 108.143 1380 121.891Z" fill="#E04545"/>
<path d="M1355 136.073C1362.95 136.073 1369.39 129.659 1369.39 121.746C1369.39 113.834 1362.95 107.419 1355 107.419C1347.05 107.419 1340.61 113.834 1340.61 121.746C1340.61 129.659 1347.05 136.073 1355 136.073Z" fill="#C43C3C"/>
</svg>
