<?xml version="1.0" encoding="utf-8"?>
<!-- Generator: Adobe Illustrator 24.0.2, SVG Export Plug-In . SVG Version: 6.00 Build 0)  -->
<svg version="1.1" id="Camada_1" xmlns="http://www.w3.org/2000/svg" xmlns:xlink="http://www.w3.org/1999/xlink" x="0px" y="0px"
	 viewBox="0 0 255.46 166.75" style="enable-background:new 0 0 255.46 166.75;" xml:space="preserve">
<style type="text/css">
	.st0{fill:none;}
	.st1{fill:#FFFFFF;}
</style>
<g>
	<g>
		<rect x="208.99" y="31.66" class="st0" width="14.8" height="59.03"/>
		<polygon class="st1" points="16.86,16.86 16.86,149.88 31.66,149.88 31.66,31.66 46.46,31.66 46.46,149.88 61.26,149.88 
			61.26,24.18 53.77,16.86 		"/>
		<rect x="76.06" y="16.86" class="st1" width="14.8" height="133.02"/>
		<polygon class="st1" points="150.05,24.18 142.56,16.86 105.65,16.86 105.65,149.88 120.45,149.88 120.45,31.66 135.25,31.66 
			135.25,124.17 150.05,124.17 		"/>
		<polygon class="st1" points="164.6,135.09 151.66,135.09 150.05,135.09 135.25,135.09 135,135.09 135,149.88 135.25,149.88 
			150.05,149.88 175.58,149.88 179.4,146.23 179.4,16.86 164.6,16.86 		"/>
		<path class="st1" d="M234.77,16.86h-36.91l-3.66,3.66v129.36h14.8v-44.39h14.8v44.39h14.8V20.52L234.77,16.86z M223.8,90.69h-14.8
			V31.66h14.8V90.69z"/>
	</g>
	<g>
		<path class="st1" d="M255.46,166.75H0V0h255.46V166.75z M6.77,159.97h241.91V6.77H6.77V159.97z"/>
	</g>
</g>
</svg>
