<?xml version="1.0" encoding="utf-8"?>
<!-- Generator: Adobe Illustrator 24.0.2, SVG Export Plug-In . SVG Version: 6.00 Build 0)  -->
<svg version="1.1" id="Camada_1" xmlns="http://www.w3.org/2000/svg" xmlns:xlink="http://www.w3.org/1999/xlink" x="0px" y="0px"
	 viewBox="0 0 645.83 94.89" style="enable-background:new 0 0 645.83 94.89;" xml:space="preserve">
<style type="text/css">
	.st0{fill:#FFFFFF;}
</style>
<g>
	<path class="st0" d="M0,9.25h35.52c5.36,0,10.01,0.56,13.94,1.68c3.93,1.12,7.19,2.73,9.78,4.85c2.59,2.12,4.52,4.69,5.79,7.73
		c1.27,3.04,1.9,6.48,1.9,10.32c0,2.59-0.31,5.06-0.94,7.39c-0.62,2.34-1.59,4.49-2.88,6.46c-1.29,1.97-2.93,3.72-4.89,5.25
		c-1.97,1.53-4.27,2.81-6.92,3.82l15.19,22.34H49.14L36.01,59.24h-0.4L14.16,59.2v19.88H0V9.25z M35.88,46.96
		c2.68,0,5.03-0.31,7.04-0.94c2.01-0.63,3.69-1.5,5.05-2.64c1.35-1.13,2.37-2.51,3.04-4.13c0.67-1.62,1.01-3.43,1.01-5.43
		c0-3.9-1.34-6.92-4.02-9.05c-2.68-2.13-6.72-3.19-12.11-3.19H14.16v25.38H35.88z"/>
	<path class="st0" d="M74.53,9.25h59.46v12.42h-45.3v13.94h40.12v11.66H88.69V66.7h46.24v12.38h-60.4V9.25z"/>
	<path class="st0" d="M180.15,0h12.82l-41.5,94.89h-12.82L180.15,0z"/>
	<path class="st0" d="M204.11,58.3c2.53,1.43,5.1,2.72,7.71,3.86c2.61,1.15,5.31,2.12,8.11,2.9c2.8,0.79,5.74,1.39,8.82,1.81
		c3.08,0.42,6.37,0.63,9.85,0.63c4.2,0,7.77-0.28,10.72-0.83c2.95-0.55,5.35-1.31,7.21-2.28c1.86-0.97,3.22-2.12,4.07-3.46
		s1.27-2.8,1.27-4.38c0-2.53-1.06-4.53-3.17-6.01c-2.12-1.47-5.38-2.21-9.78-2.21c-1.94,0-3.98,0.13-6.12,0.38
		c-2.14,0.25-4.31,0.53-6.5,0.83c-2.19,0.3-4.35,0.57-6.48,0.83c-2.13,0.25-4.13,0.38-6.01,0.38c-3.13,0-6.13-0.4-9-1.21
		c-2.88-0.8-5.42-2.01-7.64-3.62c-2.22-1.61-3.98-3.62-5.29-6.03s-1.96-5.23-1.96-8.44c0-1.91,0.26-3.8,0.78-5.67
		c0.52-1.88,1.36-3.67,2.5-5.38c1.15-1.71,2.63-3.31,4.45-4.78c1.82-1.47,4.01-2.75,6.59-3.82s5.55-1.91,8.94-2.52
		c3.38-0.61,7.23-0.92,11.55-0.92c3.13,0,6.27,0.17,9.43,0.51c3.16,0.34,6.23,0.83,9.23,1.45c2.99,0.63,5.88,1.38,8.64,2.26
		c2.77,0.88,5.35,1.85,7.73,2.93l-6.21,11.44c-1.97-0.86-4.08-1.66-6.34-2.39c-2.26-0.73-4.63-1.36-7.1-1.9s-5.03-0.96-7.66-1.27
		c-2.64-0.31-5.32-0.47-8.06-0.47c-3.9,0-7.11,0.28-9.63,0.85c-2.52,0.57-4.52,1.29-6.01,2.17c-1.49,0.88-2.52,1.86-3.11,2.95
		c-0.58,1.09-0.87,2.17-0.87,3.24c0,2.09,0.94,3.79,2.81,5.12c1.88,1.33,4.74,1.99,8.58,1.99c1.55,0,3.33-0.11,5.34-0.34
		s4.12-0.47,6.34-0.74s4.48-0.51,6.79-0.74c2.31-0.22,4.55-0.34,6.72-0.34c4.11,0,7.75,0.46,10.92,1.38
		c3.17,0.92,5.83,2.24,7.97,3.95c2.14,1.71,3.77,3.78,4.87,6.21c1.1,2.43,1.65,5.15,1.65,8.15c0,4.02-0.93,7.6-2.79,10.74
		c-1.86,3.14-4.51,5.79-7.95,7.95c-3.44,2.16-7.59,3.8-12.44,4.91c-4.86,1.12-10.26,1.68-16.22,1.68c-3.93,0-7.77-0.25-11.53-0.74
		s-7.35-1.19-10.79-2.1c-3.44-0.91-6.72-2-9.83-3.26c-3.11-1.27-5.99-2.66-8.65-4.18L204.11,58.3z"/>
	<path class="st0" d="M304.6,61.79L274.08,9.25h16.04l21.49,39.72l21.22-39.72h16.04L318.76,61.7v17.38H304.6V61.79z"/>
	<path class="st0" d="M353.7,58.3c2.53,1.43,5.1,2.72,7.71,3.86c2.61,1.15,5.31,2.12,8.11,2.9c2.8,0.79,5.74,1.39,8.82,1.81
		c3.08,0.42,6.37,0.63,9.85,0.63c4.2,0,7.77-0.28,10.72-0.83c2.95-0.55,5.35-1.31,7.21-2.28c1.86-0.97,3.22-2.12,4.07-3.46
		s1.27-2.8,1.27-4.38c0-2.53-1.06-4.53-3.17-6.01c-2.12-1.47-5.38-2.21-9.78-2.21c-1.94,0-3.98,0.13-6.12,0.38
		c-2.14,0.25-4.31,0.53-6.5,0.83c-2.19,0.3-4.35,0.57-6.48,0.83c-2.13,0.25-4.13,0.38-6.01,0.38c-3.13,0-6.13-0.4-9-1.21
		c-2.88-0.8-5.42-2.01-7.64-3.62c-2.22-1.61-3.98-3.62-5.29-6.03s-1.96-5.23-1.96-8.44c0-1.91,0.26-3.8,0.78-5.67
		c0.52-1.88,1.36-3.67,2.5-5.38c1.15-1.71,2.63-3.31,4.45-4.78c1.82-1.47,4.01-2.75,6.59-3.82s5.55-1.91,8.94-2.52
		c3.38-0.61,7.23-0.92,11.55-0.92c3.13,0,6.27,0.17,9.43,0.51c3.16,0.34,6.23,0.83,9.23,1.45c2.99,0.63,5.88,1.38,8.64,2.26
		c2.77,0.88,5.35,1.85,7.73,2.93l-6.21,11.44c-1.97-0.86-4.08-1.66-6.34-2.39c-2.26-0.73-4.63-1.36-7.1-1.9s-5.03-0.96-7.66-1.27
		c-2.64-0.31-5.32-0.47-8.06-0.47c-3.9,0-7.11,0.28-9.63,0.85c-2.52,0.57-4.52,1.29-6.01,2.17c-1.49,0.88-2.52,1.86-3.11,2.95
		c-0.58,1.09-0.87,2.17-0.87,3.24c0,2.09,0.94,3.79,2.81,5.12c1.88,1.33,4.74,1.99,8.58,1.99c1.55,0,3.33-0.11,5.34-0.34
		s4.12-0.47,6.34-0.74s4.48-0.51,6.79-0.74c2.31-0.22,4.55-0.34,6.72-0.34c4.11,0,7.75,0.46,10.92,1.38
		c3.17,0.92,5.83,2.24,7.97,3.95c2.14,1.71,3.77,3.78,4.87,6.21c1.1,2.43,1.65,5.15,1.65,8.15c0,4.02-0.93,7.6-2.79,10.74
		c-1.86,3.14-4.51,5.79-7.95,7.95c-3.44,2.16-7.59,3.8-12.44,4.91c-4.86,1.12-10.26,1.68-16.22,1.68c-3.93,0-7.77-0.25-11.53-0.74
		s-7.35-1.19-10.79-2.1c-3.44-0.91-6.72-2-9.83-3.26c-3.11-1.27-5.99-2.66-8.65-4.18L353.7,58.3z"/>
	<path class="st0" d="M453.83,21.67h-25.78V9.25h65.72v12.42H468v57.41h-14.16V21.67z"/>
	<path class="st0" d="M499.72,9.25h59.46v12.42h-45.3v13.94h40.12v11.66h-40.12V66.7h46.24v12.38h-60.4V9.25z"/>
	<path class="st0" d="M566.75,9.25h14.16l25.38,25.47l25.38-25.47h14.16v69.83h-14.16V28.86L606.29,53.3l-25.38-24.44v50.22h-14.16
		V9.25z"/>
</g>
</svg>
