<svg width="457" height="61" viewBox="0 0 457 61" fill="none" xmlns="http://www.w3.org/2000/svg">
<mask id="path-1-inside-1" fill="white">
<path fill-rule="evenodd" clip-rule="evenodd" d="M0 0V20V23V54C0 57.866 3.134 61 6.99999 61H450C453.866 61 457 57.866 457 54V20C457 16.134 453.866 13 450 13H12.7174L0 0Z"/>
</mask>
<path d="M0 0L1.07225 -1.04894L-1.5 -3.67835V0H0ZM12.7174 13L11.6451 14.0489L12.0864 14.5H12.7174V13ZM1.5 20V0H-1.5V20H1.5ZM1.5 23V20H-1.5V23H1.5ZM1.5 54V23H-1.5V54H1.5ZM6.99999 59.5C3.96243 59.5 1.5 57.0376 1.5 54H-1.5C-1.5 58.6944 2.30557 62.5 6.99999 62.5V59.5ZM450 59.5H6.99999V62.5H450V59.5ZM455.5 54C455.5 57.0376 453.038 59.5 450 59.5V62.5C454.694 62.5 458.5 58.6944 458.5 54H455.5ZM455.5 20V54H458.5V20H455.5ZM450 14.5C453.038 14.5 455.5 16.9624 455.5 20H458.5C458.5 15.3056 454.694 11.5 450 11.5V14.5ZM12.7174 14.5H450V11.5H12.7174V14.5ZM-1.07225 1.04894L11.6451 14.0489L13.7896 11.9511L1.07225 -1.04894L-1.07225 1.04894Z" fill="#3B2737" mask="url(#path-1-inside-1)"/>
</svg>
